HIERARCHY
ROOT Hips
{
	OFFSET 0.000000 100.481300 0.000000
	CHANNELS 6 Xposition Yposition Zposition Xrotation Yrotation Zrotation
	JOINT Spine
	{
		OFFSET -0.279200 12.230698 -2.892100
		CHANNELS 3 Xrotation Yrotation Zrotation
		JOINT Spine1
		{
			OFFSET -0.325700 14.269203 -3.374200
			CHANNELS 3 Xrotation Yrotation Zrotation
			JOINT Spine2
			{
				OFFSET -0.372300 16.307602 -0.352600
				CHANNELS 3 Xrotation Yrotation Zrotation
				JOINT Neck
				{
					OFFSET -0.418800 17.814194 8.416900
					CHANNELS 3 Xrotation Yrotation Zrotation
					JOINT Head
					{
						OFFSET 0.000000 7.031097 3.806800
						CHANNELS 3 Xrotation Yrotation Zrotation
						JOINT HeadTop_End
						{
							OFFSET 0.000000 24.646606 12.978600
							CHANNELS 3 Xrotation Yrotation Zrotation
							End Site
							{
								OFFSET 0.000000 27.854965 0.000000
							}
						}
					}
				}
				JOINT LeftShoulder
				{
					OFFSET 16.952999 14.495407 -7.737500
					CHANNELS 3 Xrotation Yrotation Zrotation
					JOINT LeftArm
					{
						OFFSET 9.308998 -2.777710 0.208600
						CHANNELS 3 Xrotation Yrotation Zrotation
						JOINT LeftForeArm
						{
							OFFSET 29.972298 0.000000 0.000000
							CHANNELS 3 Xrotation Yrotation Zrotation
							JOINT LeftHand
							{
								OFFSET 26.026505 0.000000 0.000000
								CHANNELS 3 Xrotation Yrotation Zrotation
								JOINT LeftHandThumb1
								{
									OFFSET 12.240501 -7.147949 9.207150
									CHANNELS 3 Xrotation Yrotation Zrotation
									JOINT LeftHandThumb2
									{
										OFFSET 4.138618 -2.389435 2.389433
										CHANNELS 3 Xrotation Yrotation Zrotation
										JOINT LeftHandThumb3
										{
											OFFSET 2.726913 -1.574387 1.574386
											CHANNELS 3 Xrotation Yrotation Zrotation
											JOINT LeftHandThumb4
											{
												OFFSET 3.941010 -2.275345 2.275342
												CHANNELS 3 Xrotation Yrotation Zrotation
												End Site
												{
													OFFSET -0.005798 5.087799 0.009903
												}
											}
										}
									}
								}
								JOINT LeftHandIndex1
								{
									OFFSET 24.424698 -1.985611 5.953459
									CHANNELS 3 Xrotation Yrotation Zrotation
									JOINT LeftHandIndex2
									{
										OFFSET 6.426697 0.000000 0.000000
										CHANNELS 3 Xrotation Yrotation Zrotation
										JOINT LeftHandIndex3
										{
											OFFSET 5.337898 0.000000 0.000000
											CHANNELS 3 Xrotation Yrotation Zrotation
											JOINT LeftHandIndex4
											{
												OFFSET 4.409401 0.000000 0.000000
												CHANNELS 3 Xrotation Yrotation Zrotation
												End Site
												{
													OFFSET 0.000000 4.409363 0.014373
												}
											}
										}
									}
								}
								JOINT LeftHandMiddle1
								{
									OFFSET 23.810104 0.000000 0.000000
									CHANNELS 3 Xrotation Yrotation Zrotation
									JOINT LeftHandMiddle2
									{
										OFFSET 7.176498 0.000000 0.000000
										CHANNELS 3 Xrotation Yrotation Zrotation
										JOINT LeftHandMiddle3
										{
											OFFSET 6.774902 0.000000 0.000000
											CHANNELS 3 Xrotation Yrotation Zrotation
											JOINT LeftHandMiddle4
											{
												OFFSET 5.403328 0.000000 0.000000
												CHANNELS 3 Xrotation Yrotation Zrotation
												End Site
												{
													OFFSET -0.027702 5.403244 0.017414
												}
											}
										}
									}
								}
								JOINT LeftHandRing1
								{
									OFFSET 22.908401 -0.839279 -6.020567
									CHANNELS 3 Xrotation Yrotation Zrotation
									JOINT LeftHandRing2
									{
										OFFSET 6.337502 0.000000 0.000000
										CHANNELS 3 Xrotation Yrotation Zrotation
										JOINT LeftHandRing3
										{
											OFFSET 5.779297 0.000000 0.000000
											CHANNELS 3 Xrotation Yrotation Zrotation
											JOINT LeftHandRing4
											{
												OFFSET 4.965698 0.000000 0.000000
												CHANNELS 3 Xrotation Yrotation Zrotation
												End Site
												{
													OFFSET 0.000000 4.965668 0.016186
												}
											}
										}
									}
								}
								JOINT LeftHandPinky1
								{
									OFFSET 20.037003 -1.530319 -10.950146
									CHANNELS 3 Xrotation Yrotation Zrotation
									JOINT LeftHandPinky2
									{
										OFFSET 5.254700 0.000000 0.000000
										CHANNELS 3 Xrotation Yrotation Zrotation
										JOINT LeftHandPinky3
										{
											OFFSET 4.810204 0.000000 0.000000
											CHANNELS 3 Xrotation Yrotation Zrotation
											JOINT LeftHandPinky4
											{
												OFFSET 3.647202 0.000000 0.000000
												CHANNELS 3 Xrotation Yrotation Zrotation
												End Site
												{
													OFFSET 0.000000 3.647186 0.011889
												}
											}
										}
									}
								}
							}
						}
					}
				}
				JOINT RightShoulder
				{
					OFFSET -15.141001 14.495407 -7.737500
					CHANNELS 3 Xrotation Yrotation Zrotation
					JOINT RightArm
					{
						OFFSET -9.308998 -2.777710 0.208500
						CHANNELS 3 Xrotation Yrotation Zrotation
						JOINT RightForeArm
						{
							OFFSET -29.972300 0.000000 0.000000
							CHANNELS 3 Xrotation Yrotation Zrotation
							JOINT RightHand
							{
								OFFSET -26.026505 0.000000 0.000000
								CHANNELS 3 Xrotation Yrotation Zrotation
								JOINT RightHandThumb1
								{
									OFFSET -12.240601 -7.148026 9.207092
									CHANNELS 3 Xrotation Yrotation Zrotation
									JOINT RightHandThumb2
									{
										OFFSET -4.138618 -2.389435 2.389433
										CHANNELS 3 Xrotation Yrotation Zrotation
										JOINT RightHandThumb3
										{
											OFFSET -2.726974 -1.574417 1.574421
											CHANNELS 3 Xrotation Yrotation Zrotation
											JOINT RightHandThumb4
											{
												OFFSET -3.941010 -2.275345 2.275343
												CHANNELS 3 Xrotation Yrotation Zrotation
												End Site
												{
													OFFSET 0.005814 5.087799 0.009927
												}
											}
										}
									}
								}
								JOINT RightHandIndex1
								{
									OFFSET -24.424698 -1.985657 5.953444
									CHANNELS 3 Xrotation Yrotation Zrotation
									JOINT RightHandIndex2
									{
										OFFSET -6.426697 0.000000 0.000000
										CHANNELS 3 Xrotation Yrotation Zrotation
										JOINT RightHandIndex3
										{
											OFFSET -5.337898 0.000000 0.000000
											CHANNELS 3 Xrotation Yrotation Zrotation
											JOINT RightHandIndex4
											{
												OFFSET -4.409401 0.000000 0.000000
												CHANNELS 3 Xrotation Yrotation Zrotation
												End Site
												{
													OFFSET 0.000000 4.409363 0.014408
												}
											}
										}
									}
								}
								JOINT RightHandMiddle1
								{
									OFFSET -23.810097 0.000000 0.000000
									CHANNELS 3 Xrotation Yrotation Zrotation
									JOINT RightHandMiddle2
									{
										OFFSET -7.176498 0.000000 0.000000
										CHANNELS 3 Xrotation Yrotation Zrotation
										JOINT RightHandMiddle3
										{
											OFFSET -6.774902 0.000000 0.000000
											CHANNELS 3 Xrotation Yrotation Zrotation
											JOINT RightHandMiddle4
											{
												OFFSET -5.403328 0.000000 0.000000
												CHANNELS 3 Xrotation Yrotation Zrotation
												End Site
												{
													OFFSET 0.027702 5.403244 0.017457
												}
											}
										}
									}
								}
								JOINT RightHandRing1
								{
									OFFSET -22.908302 -0.839325 -6.020576
									CHANNELS 3 Xrotation Yrotation Zrotation
									JOINT RightHandRing2
									{
										OFFSET -6.337502 0.000000 0.000000
										CHANNELS 3 Xrotation Yrotation Zrotation
										JOINT RightHandRing3
										{
											OFFSET -5.779297 0.000000 0.000000
											CHANNELS 3 Xrotation Yrotation Zrotation
											JOINT RightHandRing4
											{
												OFFSET -4.965698 0.000000 0.000000
												CHANNELS 3 Xrotation Yrotation Zrotation
												End Site
												{
													OFFSET 0.000000 4.965668 0.016226
												}
											}
										}
									}
								}
								JOINT RightHandPinky1
								{
									OFFSET -20.037003 -1.530334 -10.950259
									CHANNELS 3 Xrotation Yrotation Zrotation
									JOINT RightHandPinky2
									{
										OFFSET -5.254700 0.000000 0.000000
										CHANNELS 3 Xrotation Yrotation Zrotation
										JOINT RightHandPinky3
										{
											OFFSET -4.810204 0.000000 0.000000
											CHANNELS 3 Xrotation Yrotation Zrotation
											JOINT RightHandPinky4
											{
												OFFSET -3.647202 0.000000 0.000000
												CHANNELS 3 Xrotation Yrotation Zrotation
												End Site
												{
													OFFSET 0.000000 3.647186 0.011917
												}
											}
										}
									}
								}
							}
						}
					}
				}
			}
		}
	}
	JOINT LeftUpLeg
	{
		OFFSET 15.427100 -6.655098 0.678600
		CHANNELS 3 Xrotation Yrotation Zrotation
		JOINT LeftLeg
		{
			OFFSET 4.081073 -39.591068 13.024000
			CHANNELS 3 Xrotation Yrotation Zrotation
			JOINT LeftFoot
			{
				OFFSET -4.081074 -37.707932 -15.979700
				CHANNELS 3 Xrotation Yrotation Zrotation
				JOINT LeftToeBase
				{
					OFFSET 5.346399 -15.068900 20.645000
					CHANNELS 3 Xrotation Yrotation Zrotation
					JOINT LeftToe_End
					{
						OFFSET 2.754700 0.931300 11.300900
						CHANNELS 3 Xrotation Yrotation Zrotation
						End Site
						{
							OFFSET 0.000000 11.669021 0.000000
						}
					}
				}
			}
		}
	}
	JOINT RightUpLeg
	{
		OFFSET -15.569500 -6.655098 0.678600
		CHANNELS 3 Xrotation Yrotation Zrotation
		JOINT RightLeg
		{
			OFFSET -4.081825 -39.591045 13.023800
			CHANNELS 3 Xrotation Yrotation Zrotation
			JOINT RightFoot
			{
				OFFSET 4.081824 -37.707954 -15.979600
				CHANNELS 3 Xrotation Yrotation Zrotation
				JOINT RightToeBase
				{
					OFFSET -5.346400 -15.068900 20.645000
					CHANNELS 3 Xrotation Yrotation Zrotation
					JOINT RightToe_End
					{
						OFFSET -2.754700 0.931300 11.300900
						CHANNELS 3 Xrotation Yrotation Zrotation
						End Site
						{
							OFFSET 0.000000 11.669021 0.000000
						}
					}
				}
			}
		}
	}
}
MOTION
Frames: 4
Frame Time: 0.033333
38.571152 51.188065 -39.796131 35.534305 -52.977532 27.619704 8.780576 1.642374 -1.977703 17.553074 1.528263 -2.783592 17.553081 1.528246 -2.783567 -12.645679 2.542291 -0.723436 -15.483901 32.771736 -15.050964 -0.000001 -0.000000 0.000000 -3.376678 -16.587768 3.947718 12.664320 17.828636 -73.674430 -25.226435 -75.579410 -9.562381 7.541476 -8.451839 35.888652 4.921432 2.547866 -27.209877 8.791502 20.140893 2.401642 0.000005 0.000008 -0.000005 0.000001 -0.000001 -0.000002 -1.417026 -8.993510 -24.607093 -1.213270 -1.585582 -38.670516 0.000001 0.000002 -0.000003 0.000000 0.000001 0.000000 1.097116 7.873501 -35.145551 -1.911353 -3.728147 -45.928859 0.000000 0.000011 0.000005 0.000001 -0.000001 -0.000002 -3.044910 18.610706 -52.143560 -0.782593 -3.006463 -37.915937 0.000000 -0.000005 0.000003 -0.000002 0.000002 -0.000004 6.327626 21.798199 -56.801728 -1.108980 -6.107904 -63.528792 0.000002 0.000002 0.000000 0.000001 -0.000002 0.000001 -2.812295 21.080698 8.281528 -6.634428 -18.770866 57.151058 -14.606271 55.539301 11.868115 -5.656838 -6.813306 -32.929527 -0.925820 -1.473489 6.361911 7.894613 -19.170908 -2.857166 -0.000001 -0.000003 -0.000004 0.000002 0.000003 0.000002 -1.675180 0.691154 29.730072 -1.576951 1.540235 48.896689 0.000001 -0.000003 0.000003 -0.000001 -0.000001 0.000001 -1.518066 -1.098740 37.891062 -2.715947 3.753890 62.658639 -0.000004 0.000002 -0.000006 0.000001 -0.000003 0.000000 1.060172 -5.430447 46.767121 -3.183715 5.381170 69.581118 0.000002 0.000006 -0.000000 -0.000001 -0.000001 -0.000002 1.838939 -7.908615 49.192723 -3.517860 9.183469 73.396919 0.000000 -0.000001 0.000001 0.000001 0.000001 -0.000001 -90.014885 -17.722246 23.736000 87.504163 -9.218055 -2.142389 -13.058113 4.551563 -17.765170 -2.303253 -3.225325 0.764722 -0.000000 0.000002 0.000000 -54.665607 14.694857 -28.952154 87.235545 11.035387 4.068638 -45.005807 -11.765943 23.157666 -2.172359 -3.125453 2.897614 -0.000000 0.000001 -0.000000 
39.152267 51.094414 -39.775238 34.550099 -53.238811 27.902528 8.962517 1.763835 -1.946297 17.920111 1.766694 -2.829494 17.920096 1.766691 -2.829489 -14.465926 3.447349 -0.641478 -16.382975 34.662288 -14.548709 -0.000000 -0.000000 -0.000000 -3.303333 -15.482113 3.226590 13.461068 17.754889 -72.041837 -24.375232 -72.596435 -8.693004 7.231762 -8.870916 31.887828 5.263564 2.596492 -27.006071 9.024565 20.644146 2.399928 0.000005 0.000004 -0.000005 0.000000 0.000002 -0.000000 -1.442011 -9.051229 -25.119496 -1.255579 -1.637705 -39.221883 0.000001 0.000001 -0.000002 -0.000000 0.000001 -0.000000 1.074562 7.849222 -35.654766 -1.949262 -3.764568 -46.409202 -0.000002 0.000009 -0.000000 0.000001 0.000001 0.000001 -2.974905 18.344922 -52.615789 -0.831074 -3.066944 -39.180147 0.000001 -0.000007 0.000005 0.000001 -0.000000 -0.000003 6.129712 21.688234 -57.249529 -1.118892 -6.112863 -64.010832 0.000000 0.000001 -0.000003 -0.000001 -0.000004 -0.000002 -2.538003 20.782802 7.839461 -6.288250 -20.059494 58.221591 -16.582429 54.261676 12.226006 -6.654549 -8.405250 -30.582756 -1.482087 -1.811034 5.795220 7.920365 -19.228086 -2.857760 0.000001 -0.000006 -0.000008 0.000004 -0.000001 -0.000001 -1.575415 0.515463 27.786154 -1.394325 1.373682 46.426606 0.000004 -0.000000 -0.000000 -0.000000 -0.000000 -0.000001 -1.425694 -1.211425 35.996323 -2.521951 3.648256 60.178010 0.000005 -0.000002 -0.000003 0.000000 -0.000000 0.000000 1.165782 -5.542747 44.882006 -2.988388 5.303832 67.127782 0.000000 0.000008 -0.000003 0.000001 0.000001 0.000001 1.944927 -8.032923 47.313506 -3.337765 9.126127 70.928728 -0.000003 -0.000001 -0.000002 -0.000001 0.000000 -0.000000 -89.632484 -16.694721 22.878164 87.541886 -8.424962 -2.100278 -12.843803 4.606014 -17.868499 -2.260183 -3.306405 0.818001 -0.000000 0.000001 0.000000 -55.877672 14.480324 -30.944432 87.365387 13.027147 4.080671 -43.876442 -10.772541 21.892254 -2.109473 -2.831964 2.058319 0.000000 0.000001 -0.000000 
39.779610 52.205132 -39.751221 31.262705 -54.288789 25.817531 9.358337 1.847610 -1.836819 18.716824 2.015203 -2.785916 18.716836 2.015181 -2.785897 -15.604614 3.920643 -0.044831 -16.687163 35.864985 -13.573647 -0.000001 -0.000001 0.000001 -3.190671 -14.479634 2.571620 13.275351 17.333610 -70.134910 -23.470118 -69.873894 -7.849284 7.004972 -8.965918 29.319273 5.551899 2.639415 -26.627790 9.117712 20.843890 2.397885 0.000005 0.000006 -0.000007 -0.000001 -0.000001 -0.000002 -1.452109 -9.074080 -25.328037 -1.272306 -1.658572 -39.442392 0.000001 0.000001 -0.000004 0.000000 -0.000000 0.000001 1.064952 7.837791 -35.861024 -1.960664 -3.775347 -46.554098 0.000001 0.000009 0.000002 -0.000001 -0.000000 0.000001 -2.885109 18.066699 -52.783412 -0.868096 -3.111613 -40.137402 0.000002 -0.000002 0.000003 -0.000000 -0.000001 0.000004 5.926718 21.571177 -57.389196 -1.121509 -6.113723 -64.155960 0.000001 -0.000002 0.000001 -0.000000 -0.000002 0.000001 -2.225651 20.461818 7.225602 -6.970035 -20.465502 57.758771 -17.752620 53.291421 12.273042 -7.002406 -8.688357 -29.158914 -2.206499 -2.176744 5.220983 7.912324 -19.208876 -2.857006 0.000003 -0.000005 -0.000007 -0.000001 0.000001 0.000001 -1.505188 0.379547 25.472185 -1.186971 1.165361 43.493019 0.000002 0.000001 -0.000000 0.000003 0.000000 -0.000001 -1.326179 -1.348447 33.667970 -2.298111 3.511918 57.230760 -0.000003 0.000002 -0.000002 0.000004 -0.000001 -0.000001 1.319539 -5.701728 42.569571 -2.756897 5.199469 64.161971 0.000001 0.000009 0.000000 0.000002 -0.000003 0.000002 2.141791 -8.222731 45.018040 -3.125167 9.046705 67.948771 0.000000 -0.000000 -0.000001 0.000000 -0.000003 0.000002 -86.419167 -15.113837 22.154034 86.438120 -7.033983 -1.814841 -12.831934 4.457603 -17.665424 -2.228259 -3.640673 1.014069 0.000000 -0.000001 -0.000000 -54.876520 13.303155 -31.648877 86.023173 13.832854 3.838976 -42.105039 -9.883986 20.759672 -1.938252 -2.031885 1.508802 0.000000 0.000002 0.000000 
40.400803 54.362389 -39.743515 26.087643 -55.817761 21.729222 9.921252 1.878128 -1.737816 19.849401 2.221418 -2.787894 19.849423 2.221412 -2.787867 -15.686696 4.076537 1.123078 -16.520698 36.557563 -12.319909 -0.000000 0.000001 0.000000 -2.994230 -13.383873 2.009436 11.834230 16.150903 -68.210716 -23.209850 -68.061612 -7.830490 6.575438 -8.289390 27.866269 5.803546 2.683133 -26.111477 9.100765 20.807031 2.397812 0.000004 0.000002 -0.000005 -0.000001 0.000002 -0.000002 -1.450230 -9.069795 -25.292969 -1.269075 -1.654933 -39.402859 0.000001 0.000000 -0.000003 0.000001 0.000001 -0.000000 1.066199 7.838611 -35.825701 -1.951199 -3.766352 -46.435437 0.000001 0.000010 0.000000 -0.000001 -0.000001 0.000002 -2.774861 17.780552 -52.710202 -0.896345 -3.144740 -40.855798 -0.000001 -0.000004 0.000005 0.000001 -0.000002 0.000002 5.722707 21.448063 -57.285008 -1.118915 -6.112309 -64.036835 0.000001 -0.000001 -0.000000 0.000001 -0.000002 -0.000000 -1.975318 20.049167 6.952730 -8.485594 -19.906549 56.348859 -17.868779 53.342941 12.193618 -6.640921 -8.019572 -28.321040 -2.999150 -2.557088 4.596311 7.901752 -19.185057 -2.856612 0.000001 -0.000004 -0.000004 0.000002 -0.000003 -0.000004 -1.434711 0.229165 22.964556 -0.974478 0.928290 40.314894 0.000000 -0.000001 -0.000001 -0.000001 0.000001 0.000000 -1.223558 -1.504922 31.143446 -2.063319 3.351456 54.038927 0.000001 -0.000001 0.000002 0.000000 -0.000002 -0.000002 1.481825 -5.882833 40.063147 -2.512200 5.072814 60.947479 0.000001 0.000005 -0.000000 0.000001 -0.000001 -0.000000 2.348450 -8.436440 42.529983 -2.898536 8.948456 64.719307 0.000001 -0.000001 -0.000002 0.000002 0.000001 0.000003 -80.999043 -12.890906 21.695596 84.245910 -5.422593 -1.323670 -13.090503 4.213904 -16.959174 -2.143868 -4.145031 1.251157 -0.000000 -0.000002 -0.000000 -51.715624 11.598141 -31.179370 83.258107 13.425377 3.482799 -39.967716 -9.232726 20.096708 -1.693901 -0.911649 1.246661 0.000000 -0.000000 -0.000000 
